<?xml version="1.0" encoding="utf-8"?>
<!-- Generator: Adobe Illustrator 18.0.0, SVG Export Plug-In . SVG Version: 6.00 Build 0)  -->
<!DOCTYPE svg PUBLIC "-//W3C//DTD SVG 1.1//EN" "http://www.w3.org/Graphics/SVG/1.1/DTD/svg11.dtd">
<svg version="1.1" id="Layer_1" xmlns="http://www.w3.org/2000/svg" xmlns:xlink="http://www.w3.org/1999/xlink" x="0px" y="0px"
	 width="178px" height="116.4px" viewBox="0 0 178 116.4" style="enable-background:new 0 0 178 116.4;" xml:space="preserve">
<g>
	<path style="fill:#3C444B;" d="M89.1,0v3V0L89,0C63.4,0,48,10.1,47.3,10.5L46,11.4V13v70c0,3.4,2.2,9.3,21.4,21.3
		c10,6.3,19.8,11.2,20.2,11.4l1.3,0.7l1.3-0.7c0.4-0.2,10.2-5.1,20.2-11.4C129.8,92.3,132,86.4,132,83V13v-1.6l-1.3-0.9
		C130,10.1,114.7,0,89.1,0L89.1,0z"/>
</g>
<rect x="81" y="31" style="fill:#FFFFFF;" width="3" height="74"/>
<rect x="94" y="31" style="fill:#FFFFFF;" width="3" height="74"/>
<rect x="82" y="94" style="fill:#FFFFFF;" width="14" height="3"/>
<rect x="82" y="83" style="fill:#FFFFFF;" width="14" height="3"/>
<rect x="82" y="72" style="fill:#CCCCCC;" width="14" height="3"/>
<rect x="82" y="61" style="fill:#CCCCCC;" width="14" height="3"/>
<rect x="82" y="50" style="fill:#CCCCCC;" width="14" height="3"/>
<rect x="82" y="39" style="fill:#FFFFFF;" width="14" height="3"/>
<g>
	<path style="fill:#D4D4D4;" d="M54,82.9v-67L49,13v70c0,10,40,30,40,30v-5.6c-3.3-1.7-9.9-5.3-16.6-9.4
		C55.8,87.7,54.1,83.4,54,82.9z"/>
</g>
<g>
	<path style="fill:#BBBBBB;" d="M124,82.9v-67l5-2.9v70c0,10-40,30-40,30v-5.6c3.3-1.7,9.9-5.3,16.6-9.4
		C122.2,87.7,123.9,83.4,124,82.9z"/>
</g>
<path style="fill:#EEEEEE;" d="M89,8l0.1,0h0c12,0,21.4,2.5,27.2,4.6c3.4,1.2,6,2.4,7.7,3.3l5-2.9c0,0-15-10-39.9-10
	c0,0-0.1,0-0.1,0C64,3,49,13,49,13l5,2.9C58.8,13.4,71.1,8,89,8z"/>
<polygon style="fill:#12806A;" points="178,61.2 160,61.2 160,79.2 178,79.2 171,70.2 "/>
<polygon style="fill:#12806A;" points="0,61.2 18,61.2 18,79.2 0,79.2 7,70.2 "/>
<rect x="14" y="47.2" style="fill:#169E83;" width="150" height="28"/>
<g>
	<path style="fill:#FFFFFF;" d="M32.9,57.8v6.7c0,3.7-1.3,6.1-5.1,6.1c-3.8,0-5.1-2.3-5.1-6.1v-6.7c0-3.7,1.3-6,5.1-6
		C31.6,51.8,32.9,54.1,32.9,57.8z M25.4,57.1v8c0,2,0.5,3.3,2.4,3.3s2.4-1.3,2.4-3.3v-8c0-2-0.5-3.2-2.4-3.2S25.4,55.2,25.4,57.1z"
		/>
	<path style="fill:#FFFFFF;" d="M38.7,54v5.9H42v2h-3.3v8.5h-2.6V52h7.2v2H38.7z"/>
	<path style="fill:#FFFFFF;" d="M48.5,54v5.9h3.3v2h-3.3v8.5h-2.6V52h7.2v2H48.5z"/>
	<path style="fill:#FFFFFF;" d="M58.3,52v18.4h-2.6V52H58.3z"/>
	<path style="fill:#FFFFFF;" d="M66.6,70.5c-3.9,0-5-2.8-5-6.8v-5.2c0-3.9,1.1-6.7,5-6.7c3.7,0,4.9,2.4,4.9,6.1h-2.6
		c0-2.2-0.1-3.9-2.3-3.9s-2.4,1.7-2.4,3.9v6.6c0,2,0.4,3.9,2.4,3.9c2,0,2.3-1.9,2.3-3.9v-0.7h2.6v0.7C71.5,68.1,70.3,70.5,66.6,70.5
		z"/>
	<path style="fill:#FFFFFF;" d="M77,61.8v6.6h4.6v2h-7.2V52h7.2v2H77v5.9h3.3v2H77z"/>
	<path style="fill:#FFFFFF;" d="M88.9,52h2.6v16.4h4.6v2h-7.2V52z"/>
	<path style="fill:#FFFFFF;" d="M100.7,70.4h-2.6L102,52h2.6l3.9,18.4h-2.6l-1-4.6h-3.3L100.7,70.4z M103.3,55.9l-1.3,7.9h2.6
		L103.3,55.9z"/>
	<path style="fill:#FFFFFF;" d="M115.3,70.4h-4V52h4.1c3.8,0,5.2,1.4,5.2,5.2v7.2C120.5,68.4,119.2,70.4,115.3,70.4z M115.2,54h-1.4
		v14.4h1.4c2.8,0,2.6-1.9,2.6-4.6v-5.9C117.9,55.4,117.8,54,115.2,54z"/>
	<path style="fill:#FFFFFF;" d="M127.7,70.4h-4.1V52h4.1c3.8,0,5.2,1.4,5.2,5.2v7.2C133,68.4,131.7,70.4,127.7,70.4z M127.7,54h-1.4
		v14.4h1.4c2.8,0,2.6-1.9,2.6-4.6v-5.9C130.4,55.4,130.3,54,127.7,54z"/>
	<path style="fill:#FFFFFF;" d="M138.8,61.8v6.6h4.6v2h-7.2V52h7.2v2h-4.6v5.9h3.3v2H138.8z"/>
	<path style="fill:#FFFFFF;" d="M153,61.2l3,9.2h-2.6l-2.6-8.5h-2v8.5h-2.6V52h3.3c3.7,0,5.9,1.3,5.9,4.9
		C155.3,59.1,154.6,60.6,153,61.2z M149.4,54h-0.7v5.9h0.7c2.1,0,3.3-0.8,3.3-3S151.6,54,149.4,54z"/>
</g>
<polygon style="fill:#10715E;" points="18,79.2 14,75.2 18,75.2 "/>
<polygon style="fill:#10715E;" points="160,79.2 164,75.2 160,75.2 "/>
<polygon style="fill:#FFFFFF;" points="64,27 67.9,31 65.2,31 60,36.2 58.4,34.5 63.5,29.4 "/>
<polygon style="fill:#FFFFFF;" points="114,27 110.1,31 112.8,31 118,36.2 119.6,34.5 114.5,29.4 "/>
<g>
	<path style="fill:#FFFFFF;" d="M106.7,31c-4,0-7.3-3.3-7.3-7.3s3.3-7.3,7.3-7.3s7.3,3.3,7.3,7.3c0,0.6-0.1,1.2-0.2,1.8l-5.3,5.3
		C107.9,30.9,107.3,31,106.7,31z"/>
	<path style="fill:#3C444B;" d="M106.7,16.7c3.9,0,7,3.2,7,7c0,0.5-0.1,1.1-0.2,1.6l-5.2,5.2c-0.6,0.1-1.1,0.2-1.6,0.2
		c-3.9,0-7-3.2-7-7C99.7,19.8,102.9,16.7,106.7,16.7 M106.7,16.2c-4.2,0-7.5,3.4-7.5,7.5c0,4.2,3.4,7.5,7.5,7.5
		c0.7,0,1.3-0.1,1.9-0.2l5.4-5.4c0.2-0.6,0.2-1.2,0.2-1.9C114.2,19.6,110.9,16.2,106.7,16.2L106.7,16.2z"/>
</g>
<g>
	<path style="fill:#FFFFFF;" d="M71.3,31c-0.6,0-1.2-0.1-1.8-0.2l-5.3-5.3c-0.4-1.5-0.3-2.9,0.3-4.3c1.1-2.8,3.7-4.7,6.5-4.7l0.2,0
		c2,0,3.8,0.8,5.2,2.2c1.4,1.4,2.1,3.3,2,5.3c-0.1,2.9-2,5.4-4.8,6.5C73,30.8,72.1,31,71.3,31z"/>
	<path style="fill:#3C444B;" d="M71.3,16.7L71.3,16.7c1.9,0,3.7,0.8,5,2.1c1.3,1.4,2,3.2,2,5.1c-0.1,2.7-1.9,5.3-4.6,6.3
		c-0.8,0.3-1.6,0.5-2.4,0.5c-0.5,0-1.1-0.1-1.6-0.2l-5.2-5.2c-0.3-1.4-0.3-2.7,0.3-4.1c1.1-2.7,3.6-4.5,6.3-4.6
		C71.1,16.7,71.2,16.7,71.3,16.7 M71.3,16.2c-0.1,0-0.2,0-0.3,0c-3,0.1-5.7,2.1-6.8,4.9c-0.6,1.6-0.6,3.1-0.3,4.5l5.4,5.4
		c0.6,0.2,1.2,0.2,1.9,0.2c0.8,0,1.7-0.1,2.6-0.5c2.8-1.1,4.8-3.7,4.9-6.8C78.9,19.7,75.5,16.2,71.3,16.2L71.3,16.2z"/>
</g>
<circle style="fill:#E0C882;" cx="89" cy="22" r="4"/>
</svg>
